<svg width="16" height="16" viewBox="0 0 16 16" fill="none" xmlns="http://www.w3.org/2000/svg">
<g id="icon/speaker">
<path id="Rectangle 92 (Stroke)" fill-rule="evenodd" clip-rule="evenodd" d="M8.44721 2.10558C8.786 2.27497 9 2.62123 9 3.00001V13C9 13.3788 8.786 13.725 8.44721 13.8944C8.10843 14.0638 7.70302 14.0273 7.4 13.8L3.66667 11H1C0.447715 11 0 10.5523 0 10V6.00001C0 5.44772 0.447715 5.00001 1 5.00001H3.66667L7.4 2.20001C7.70302 1.97274 8.10843 1.93619 8.44721 2.10558ZM7 5.00001L4.6 6.80001C4.4269 6.92983 4.21637 7.00001 4 7.00001H2V9.00001H4C4.21637 9.00001 4.4269 9.07018 4.6 9.20001L7 11V5.00001Z" fill="#212121"/>
<path id="Vector (Stroke)" fill-rule="evenodd" clip-rule="evenodd" d="M12.4142 3.05071C12.8048 2.66018 13.4379 2.66018 13.8284 3.05071C16.5621 5.78438 16.5621 10.2165 13.8284 12.9502C13.4379 13.3407 12.8048 13.3407 12.4142 12.9502C12.0237 12.5597 12.0237 11.9265 12.4142 11.536C14.3669 9.58336 14.3669 6.41754 12.4142 4.46492C12.0237 4.0744 12.0237 3.44123 12.4142 3.05071ZM10.2929 5.17204C10.6834 4.78152 11.3166 4.78152 11.7071 5.17204C13.2692 6.73414 13.2692 9.2668 11.7071 10.8289C11.3166 11.2194 10.6834 11.2194 10.2929 10.8289C9.90237 10.4384 9.90237 9.80521 10.2929 9.41468C11.0739 8.63364 11.0739 7.36731 10.2929 6.58626C9.90237 6.19573 9.90237 5.56257 10.2929 5.17204Z" fill="#212121"/>
</g>
</svg>
