<svg width="56" height="56" viewBox="0 0 56 56" fill="none" xmlns="http://www.w3.org/2000/svg">
<g id="icon_warning">
<circle id="Ellipse 106" cx="28" cy="28" r="26.5" stroke="#1D4ED8" stroke-width="3"/>
<path id="!" d="M29.4155 33.2331H26.3653L26.1279 14H29.6712L29.4155 33.2331ZM26 39.0859C26 38.5337 26.1644 38.0736 26.4932 37.7055C26.8341 37.3252 27.3333 37.135 27.9909 37.135C28.6484 37.135 29.1476 37.3252 29.4886 37.7055C29.8295 38.0736 30 38.5337 30 39.0859C30 39.638 29.8295 40.0982 29.4886 40.4663C29.1476 40.8221 28.6484 41 27.9909 41C27.3333 41 26.8341 40.8221 26.4932 40.4663C26.1644 40.0982 26 39.638 26 39.0859Z" fill="#1D4ED8"/>
</g>
</svg>
